#!OML:ASF H:\BabyWalks\Project 1\Capture day 1\Session 1\baby.ASF
:FULLY-SPECIFIED
:DEGREES
1247
root 43.1418 17.4149 -0.959702 14.1961 103.635 14.4421
lowerback 21.5695 0.142751 3.71389
upperback 6.80701 1.63439 1.5132
thorax -4.57715 1.04394 -0.917114
lowerneck 2.14622 -3.93649 0.673658
upperneck -11.8746 -4.93601 1.57626
head -4.24852 -2.46637 0.616657
rclavicle 1.97791e-014 9.93923e-015
rhumerus -40.562 3.9279 -79.8728
rradius 48.6599
rwrist 0.738606
rhand -15.5715 -16.475
rfingers 7.12502
rthumb 10.6135 -46.1869
lclavicle 1.97791e-014 9.93923e-015
lhumerus -48.4257 -6.13312 80.5349
lradius 47.7308
lwrist -2.4518
lhand 3.54724 9.13502
lfingers 7.12502
lthumb 28.9834 36.9016
rfemur -17.7209 5.64798 19.2047
rtibia 24.8414
rfoot -7.8396 -5.01892
rtoes -1.89989
lfemur -9.08062 -6.01572 -9.57742
ltibia 30.739
lfoot -25.8332 -7.47341
ltoes -7.33779
1248
root 43.1687 17.4248 -0.948549 13.7208 103.535 13.8321
lowerback 21.4979 0.135484 3.62458
upperback 6.79177 1.59744 1.48924
thorax -4.56023 1.02417 -0.881698
lowerneck 2.08916 -3.85546 0.743828
upperneck -11.8745 -4.83923 1.41268
head -4.24432 -2.41343 0.544545
rclavicle 4.25399e-014 -3.57812e-015
rhumerus -40.4169 3.88619 -79.7826
rradius 49.0294
rwrist 0.0667923
rhand -15.7587 -16.5825
rfingers 7.12502
rthumb 10.4329 -46.3036
lclavicle 4.25399e-014 -3.57812e-015
lhumerus -48.5168 -6.59245 80.7911
lradius 48.1919
lwrist -2.32039
lhand 3.85452 9.06599
lfingers 7.12502
lthumb 29.2768 36.7818
rfemur -17.7743 5.68915 19.0911
rtibia 24.8589
rfoot -7.92403 -5.00514
rtoes -1.81954
lfemur -8.86157 -5.98596 -9.70199
ltibia 30.2671
lfoot -25.6903 -7.41972
ltoes -7.45934
1249
root 43.1942 17.4337 -0.937606 13.2678 103.432 13.2553
lowerback 21.4293 0.128027 3.53606
upperback 6.78611 1.56119 1.46303
thorax -4.5343 1.00539 -0.849286
lowerneck 2.04407 -3.77233 0.792653
upperneck -11.882 -4.73767 1.27707
head -4.24363 -2.35851 0.485691
rclavicle -2.04748e-014 3.61788e-014
rhumerus -40.271 3.8727 -79.7141
rradius 49.4
rwrist -0.564935
rhand -15.8582 -16.6884
rfingers 7.12502
rthumb 10.337 -46.4144
lclavicle -2.04748e-014 3.61788e-014
lhumerus -48.5626 -7.03697 81.0107
lradius 48.671
lwrist -2.13835
lhand 4.08471 9.00192
lfingers 7.12502
lthumb 29.4966 36.6792
rfemur -17.8333 5.73949 18.9869
rtibia 24.8935
rfoot -8.00443 -5.00087
rtoes -1.79593
lfemur -8.64472 -5.95789 -9.81843
ltibia 29.8126
lfoot -25.5541 -7.36823
ltoes -7.56738
1250
root 43.2182 17.4414 -0.926913 12.9026 103.333 12.7764
lowerback 21.3646 0.116557 3.46403
upperback 6.78735 1.52434 1.4403
thorax -4.50245 0.986863 -0.822393
lowerneck 2.0086 -3.69099 0.820355
upperneck -11.8941 -4.63702 1.16691
head -4.24504 -2.30432 0.439309
rclavicle 1.55052e-014 -5.1684e-015
rhumerus -40.1235 3.88499 -79.6628
rradius 49.764
rwrist -1.14222
rhand -15.8716 -16.7793
rfingers 7.12502
rthumb 10.324 -46.5059
lclavicle 1.55052e-014 -5.1684e-015
lhumerus -48.5604 -7.4537 81.1887
lradius 49.1592
lwrist -1.91237
lhand 4.25141 8.95727
lfingers 7.12502
lthumb 29.6557 36.6063
rfemur -17.8947 5.79387 18.909
rtibia 24.9357
rfoot -8.07878 -5.00252
rtoes -1.80486
lfemur -8.4404 -5.93353 -9.90829
ltibia 29.3885
lfoot -25.4304 -7.31704
ltoes -7.66582
1251
root 43.2407 17.448 -0.916616 12.6507 103.243 12.4198
lowerback 21.3066 0.100729 3.41642
upperback 6.79088 1.48808 1.4225
thorax -4.47099 0.968878 -0.804383
lowerneck 1.9904 -3.61356 0.840691
upperneck -11.9131 -4.54093 1.06693
head -4.25176 -2.25261 0.398307
rclavicle -3.97569e-015 2.78299e-015
rhumerus -39.982 3.91769 -79.6275
rradius 50.118
rwrist -1.66773
rhand -15.8214 -16.8452
rfingers 7.12502
rthumb 10.3725 -46.5694
lclavicle -3.97569e-015 2.78299e-015
lhumerus -48.5096 -7.83848 81.3228
lradius 49.6437
lwrist -1.65149
lhand 4.35585 8.9186
lfingers 7.12502
lthumb 29.7554 36.5499
rfemur -17.9571 5.84907 18.8624
rtibia 24.9793
rfoot -8.14381 -5.00756
rtoes -1.83337
lfemur -8.25443 -5.91663 -9.96611
ltibia 29.0036
lfoot -25.3253 -7.2622
ltoes -7.75502
